<svg xmlns="http://www.w3.org/2000/svg" width="191.044" height="25.348" viewBox="0 0 191.044 25.348">
  <g id="Layer_1_1_" transform="translate(-0.4 -0.3)">
    <g id="Group_1" data-name="Group 1" transform="translate(0.4 0.3)">
      <path id="Path_1" data-name="Path 1" d="M61.522,4.358H55.715v.062a2.391,2.391,0,0,1,.312,1.186,14.652,14.652,0,0,1-.562,2.5L51.782,18.718a10.475,10.475,0,0,1-1.436,3.059v.062h4.807v-.062a2.409,2.409,0,0,1-.375-1.249,7.064,7.064,0,0,1,.5-2.123l.25-.749h5.244s.312.936.562,1.5a3.955,3.955,0,0,1,.25,1.311,4.245,4.245,0,0,1-.25,1.311v.062h6.992v-.062a12.378,12.378,0,0,1-1.748-3.746ZM56.465,14.784l1.623-4.87h0l1.686,4.87Zm-9.115,3.184a8.071,8.071,0,0,0,.624,3.808v.062H41.106v-.062a6.9,6.9,0,0,0,.562-3.746V14.472l-.936-1.811L37.423,6.481a6.265,6.265,0,0,0-1.5-2.06V4.358h5.994v.062l3.559,7.242,1-2,1-2a4.672,4.672,0,0,0,.624-2,1.77,1.77,0,0,0-.375-1.186V4.358h4.745v.062l-4.807,9.49-.375.687.062,3.371Zm34.525,3.871h-12.3v-.062a8.32,8.32,0,0,0,.562-3.746V8.167a7.936,7.936,0,0,0-.562-3.684V4.421h6.68v.062a9.048,9.048,0,0,0-.5,3.746V18.281a15.464,15.464,0,0,0,2.56.25,9.951,9.951,0,0,0,3.808-.5h.187ZM27.808,3.921c-5.432,0-9.178,3.371-9.178,8.116,0,6.93,7.367,7.929,9.927,5.681l-.437-.874c-2.248.437-4.245-1.249-4.245-5.057,0-3.059,1.623-4.995,3.871-4.995,2.622,0,4.245,2.622,4.245,6.431,0,4.308-2.5,7.554-7.117,7.554-5.307,0-9.3-4.183-11.8-8.366,2.747-1.061,4.37-3.122,4.37-5.931C17.444,2.86,14.7.3,9.765.3H.4V.362a11.8,11.8,0,0,1,.562,4.37v13.3A8.32,8.32,0,0,1,.4,21.777v.062H7.33v-.062a10.478,10.478,0,0,1-.562-3.746V14.347h.874c4.807,7.055,10.3,9.989,16.17,9.989,8.491,0,13.485-5.369,13.485-11.3C37.3,7.979,33.489,3.921,27.808,3.921ZM6.831,11.538V3.609H8.766c2.248,0,3.184,1.311,3.184,3.434,0,2.56-1.5,4.558-3.933,4.558A9.322,9.322,0,0,0,6.831,11.538ZM123.268,4.421a8.115,8.115,0,0,0-.562,3.684V18.967a6.35,6.35,0,0,0,.562,2.747v.062H119.21a12.365,12.365,0,0,1-3.059-2.747c-1-1.061-5.681-6.493-5.681-6.493h-.062v5.182a30.057,30.057,0,0,0-4.245.812V8.042a7.936,7.936,0,0,0-.562-3.684V4.3h4.932l7.929,9.615h0V8.167a7.936,7.936,0,0,0-.562-3.684V4.421h5.369Zm-8.179,17.419c-6.93.062-8.553,3.808-17.356,3.808a31.265,31.265,0,0,1-7.991-1.124v-.062a8.036,8.036,0,0,0,.562-3.684V4.733a11.8,11.8,0,0,0-.562-4.37V.3h14.172l.437,3.933h0a11.237,11.237,0,0,0-4.245-.562H96.359v6.805H98.17a25.009,25.009,0,0,0,4.87-.312h.125v4.121H103.1a22.362,22.362,0,0,0-4.807-.375H96.422v6.805a21.917,21.917,0,0,0,4.183.5c5.244,0,7.492-1.873,12.674-1.873h.437c1,1.186,1.873,2.123,2.248,2.5ZM145.244,8.167v9.927a8.32,8.32,0,0,0,.562,3.746V21.9h-6.743v-.062a8.32,8.32,0,0,0,.562-3.746V8.167a7.936,7.936,0,0,0-.562-3.684V4.421h6.743v.062A7.936,7.936,0,0,0,145.244,8.167ZM131.7,11.975h.5a18.057,18.057,0,0,0,3.684-.25H136v3.621h-.125a11.543,11.543,0,0,0-3.621-.375H131.7v3c0,1.748.062,2.934.624,3.808v.062h-6.805v-.062a8.32,8.32,0,0,0,.562-3.746V8.167a7.936,7.936,0,0,0-.562-3.684V4.421h11.613l.437,3.559H137.5a8.4,8.4,0,0,0-3.559-.562H131.7v4.558Zm28.844,6.243-.437,3.621H148.116v-.062a8.32,8.32,0,0,0,.562-3.746V8.167a7.936,7.936,0,0,0-.562-3.684V4.421h11.613l.437,3.559H160.1a8.4,8.4,0,0,0-3.559-.562H154.3v4h.437a18.057,18.057,0,0,0,3.684-.25h.125v3.621h-.125a11.543,11.543,0,0,0-3.621-.375h-.562V18.53a13.314,13.314,0,0,0,2.31.187,8.495,8.495,0,0,0,3.746-.5Zm30.9-4.558c0,5.994-4.37,10.676-11.737,10.676-5.681,0-7.492-2.5-14.547-2.5h-2.934v-.062a8.32,8.32,0,0,0,.562-3.746V8.1a7.936,7.936,0,0,0-.562-3.684V4.358h6.743v.062a9.626,9.626,0,0,0-.562,3.746V18.78c4.183,0,6.056,1.249,9.74,1.249,5.119,0,7.617-2.809,7.617-6.805,0-3.434-1.748-5.994-4.807-5.994h-2v10.8a16.336,16.336,0,0,1-5.619-.749V8.1a7.936,7.936,0,0,0-.562-3.684V4.358h7.929C187.262,4.358,191.445,8.416,191.445,13.661Z" transform="translate(-0.4 -0.3)" fill="#da291c"/>
    </g>
  </g>
</svg>
